<svg xmlns="http://www.w3.org/2000/svg" xmlns:xlink="http://www.w3.org/1999/xlink" contentStyleType="text/css" height="220" preserveAspectRatio="none" style="width:1380px;height:220px;background:#FFFFFF;" version="1.1" viewBox="0 0 1380 220" width="1380" zoomAndPan="magnify"><defs/><g><!--cluster Operation--><g id="cluster_Operation"><path d="M8.5,6 L90.5,6 A3.75,3.75 0 0 1 93,8.5 L100,28.2969 L430.5,28.2969 A2.5,2.5 0 0 1 433,30.7969 L433,210.5 A2.5,2.5 0 0 1 430.5,213 L8.5,213 A2.5,2.5 0 0 1 6,210.5 L6,8.5 A2.5,2.5 0 0 1 8.5,6 " fill="none" style="stroke:#000000;stroke-width:1.5;"/><line style="stroke:#000000;stroke-width:1.5;" x1="6" x2="100" y1="28.2969" y2="28.2969"/><text fill="#000000" font-family="sans-serif" font-size="14" font-weight="bold" lengthAdjust="spacing" textLength="81" x="10" y="20.9951">Operation</text></g><!--cluster Connection--><g id="cluster_Connection"><path d="M1169.5,6 L1261.5,6 A3.75,3.75 0 0 1 1264,8.5 L1271,28.2969 L1370.5,28.2969 A2.5,2.5 0 0 1 1373,30.7969 L1373,210.5 A2.5,2.5 0 0 1 1370.5,213 L1169.5,213 A2.5,2.5 0 0 1 1167,210.5 L1167,8.5 A2.5,2.5 0 0 1 1169.5,6 " fill="none" style="stroke:#000000;stroke-width:1.5;"/><line style="stroke:#000000;stroke-width:1.5;" x1="1167" x2="1271" y1="28.2969" y2="28.2969"/><text fill="#000000" font-family="sans-serif" font-size="14" font-weight="bold" lengthAdjust="spacing" textLength="91" x="1171" y="20.9951">Connection</text></g><!--cluster BuiltinDevice--><g id="cluster_BuiltinDevice"><path d="M459.5,114 L566.5,114 A3.75,3.75 0 0 1 569,116.5 L576,136.2969 L814.5,136.2969 A2.5,2.5 0 0 1 817,138.7969 L817,210.5 A2.5,2.5 0 0 1 814.5,213 L459.5,213 A2.5,2.5 0 0 1 457,210.5 L457,116.5 A2.5,2.5 0 0 1 459.5,114 " fill="none" style="stroke:#000000;stroke-width:1.5;"/><line style="stroke:#000000;stroke-width:1.5;" x1="457" x2="576" y1="136.2969" y2="136.2969"/><text fill="#000000" font-family="sans-serif" font-size="14" font-weight="bold" lengthAdjust="spacing" textLength="106" x="461" y="128.9951">BuiltinDevice</text></g><!--cluster ExternalDevice--><g id="cluster_ExternalDevice"><path d="M843.5,114 L963.5,114 A3.75,3.75 0 0 1 966,116.5 L973,136.2969 L1140.5,136.2969 A2.5,2.5 0 0 1 1143,138.7969 L1143,210.5 A2.5,2.5 0 0 1 1140.5,213 L843.5,213 A2.5,2.5 0 0 1 841,210.5 L841,116.5 A2.5,2.5 0 0 1 843.5,114 " fill="none" style="stroke:#000000;stroke-width:1.5;"/><line style="stroke:#000000;stroke-width:1.5;" x1="841" x2="973" y1="136.2969" y2="136.2969"/><text fill="#000000" font-family="sans-serif" font-size="14" font-weight="bold" lengthAdjust="spacing" textLength="119" x="845" y="128.9951">ExternalDevice</text></g><!--class PCOperator--><g id="elem_PCOperator"><rect codeLine="2" fill="#F1F1F1" height="48" id="PCOperator" rx="2.5" ry="2.5" style="stroke:#181818;stroke-width:0.5;" width="117" x="168.5" y="149"/><ellipse cx="183.5" cy="165" fill="#ADD1B2" rx="11" ry="11" style="stroke:#181818;stroke-width:1.0;"/><path d="M185.8438,160.6719 C184.9063,160.2344 184.3125,160.0938 183.4375,160.0938 C180.8125,160.0938 178.8125,162.1719 178.8125,164.8906 L178.8125,166.0156 C178.8125,168.5938 180.9219,170.4844 183.8125,170.4844 C185.0313,170.4844 186.1875,170.1875 186.9375,169.6406 C187.5156,169.2344 187.8438,168.7813 187.8438,168.3906 C187.8438,167.9375 187.4531,167.5469 186.9844,167.5469 C186.7656,167.5469 186.5625,167.625 186.375,167.8125 C185.9219,168.2969 185.9219,168.2969 185.7344,168.3906 C185.3125,168.6563 184.625,168.7813 183.8594,168.7813 C181.8125,168.7813 180.5156,167.6875 180.5156,165.9844 L180.5156,164.8906 C180.5156,163.1094 181.7656,161.7969 183.5,161.7969 C184.0781,161.7969 184.6875,161.9531 185.1563,162.2031 C185.6406,162.4844 185.8125,162.7031 185.9063,163.1094 C185.9688,163.5156 186,163.6406 186.1406,163.7656 C186.2813,163.9063 186.5156,164.0156 186.7344,164.0156 C187,164.0156 187.2656,163.875 187.4375,163.6563 C187.5469,163.5 187.5781,163.3125 187.5781,162.8906 L187.5781,161.4688 C187.5781,161.0313 187.5625,160.9063 187.4688,160.75 C187.3125,160.4844 187.0313,160.3438 186.7344,160.3438 C186.4375,160.3438 186.2344,160.4375 186.0156,160.75 L185.8438,160.6719 Z " fill="#000000"/><text fill="#000000" font-family="sans-serif" font-size="14" lengthAdjust="spacing" textLength="85" x="197.5" y="169.8467">PCOperator</text><line style="stroke:#181818;stroke-width:0.5;" x1="169.5" x2="284.5" y1="181" y2="181"/><line style="stroke:#181818;stroke-width:0.5;" x1="169.5" x2="284.5" y1="189" y2="189"/></g><!--class KeyboardInterface--><g id="elem_KeyboardInterface"><rect codeLine="3" fill="#F1F1F1" height="48" id="KeyboardInterface" rx="2.5" ry="2.5" style="stroke:#181818;stroke-width:0.5;" width="164" x="253" y="41"/><ellipse cx="268" cy="57" fill="#B4A7E5" rx="11" ry="11" style="stroke:#181818;stroke-width:1.0;"/><path d="M268.9531,53.7813 L270.6719,53.7813 C271.0625,53.7813 271.25,53.75 271.375,53.6719 C271.6406,53.5156 271.7813,53.2344 271.7813,52.9375 C271.7813,52.6719 271.6719,52.4063 271.4375,52.2344 C271.2656,52.125 271.125,52.0938 270.6719,52.0938 L265.5313,52.0938 C265.0938,52.0938 264.9688,52.1094 264.8125,52.2031 C264.5625,52.3594 264.4063,52.6563 264.4063,52.9375 C264.4063,53.2188 264.5469,53.4688 264.7656,53.6406 C264.9219,53.75 265.1094,53.7813 265.5313,53.7813 L267.25,53.7813 L267.25,60.2969 L265.5313,60.2969 C265.0938,60.2969 264.9688,60.3125 264.8125,60.4219 C264.5625,60.5781 264.4063,60.8594 264.4063,61.1563 C264.4063,61.4063 264.5469,61.6719 264.7656,61.8281 C264.9219,61.9531 265.125,62 265.5313,62 L270.6719,62 C271.4219,62 271.7813,61.7188 271.7813,61.1563 C271.7813,60.875 271.6719,60.625 271.4375,60.4531 C271.2656,60.3281 271.125,60.2969 270.6719,60.2969 L268.9531,60.2969 L268.9531,53.7813 Z " fill="#000000"/><text fill="#000000" font-family="sans-serif" font-size="14" font-style="italic" lengthAdjust="spacing" textLength="132" x="282" y="61.8467">KeyboardInterface</text><line style="stroke:#181818;stroke-width:0.5;" x1="254" x2="416" y1="73" y2="73"/><line style="stroke:#181818;stroke-width:0.5;" x1="254" x2="416" y1="81" y2="81"/></g><!--class PointerDeviceInterface--><g id="elem_PointerDeviceInterface"><rect codeLine="4" fill="#F1F1F1" height="48" id="PointerDeviceInterface" rx="2.5" ry="2.5" style="stroke:#181818;stroke-width:0.5;" width="195" x="22.5" y="41"/><ellipse cx="37.5" cy="57" fill="#B4A7E5" rx="11" ry="11" style="stroke:#181818;stroke-width:1.0;"/><path d="M38.4531,53.7813 L40.1719,53.7813 C40.5625,53.7813 40.75,53.75 40.875,53.6719 C41.1406,53.5156 41.2813,53.2344 41.2813,52.9375 C41.2813,52.6719 41.1719,52.4063 40.9375,52.2344 C40.7656,52.125 40.625,52.0938 40.1719,52.0938 L35.0313,52.0938 C34.5938,52.0938 34.4688,52.1094 34.3125,52.2031 C34.0625,52.3594 33.9063,52.6563 33.9063,52.9375 C33.9063,53.2188 34.0469,53.4688 34.2656,53.6406 C34.4219,53.75 34.6094,53.7813 35.0313,53.7813 L36.75,53.7813 L36.75,60.2969 L35.0313,60.2969 C34.5938,60.2969 34.4688,60.3125 34.3125,60.4219 C34.0625,60.5781 33.9063,60.8594 33.9063,61.1563 C33.9063,61.4063 34.0469,61.6719 34.2656,61.8281 C34.4219,61.9531 34.625,62 35.0313,62 L40.1719,62 C40.9219,62 41.2813,61.7188 41.2813,61.1563 C41.2813,60.875 41.1719,60.625 40.9375,60.4531 C40.7656,60.3281 40.625,60.2969 40.1719,60.2969 L38.4531,60.2969 L38.4531,53.7813 Z " fill="#000000"/><text fill="#000000" font-family="sans-serif" font-size="14" font-style="italic" lengthAdjust="spacing" textLength="163" x="51.5" y="61.8467">PointerDeviceInterface</text><line style="stroke:#181818;stroke-width:0.5;" x1="23.5" x2="216.5" y1="73" y2="73"/><line style="stroke:#181818;stroke-width:0.5;" x1="23.5" x2="216.5" y1="81" y2="81"/></g><!--class USBPort--><g id="elem_USBPort"><rect codeLine="7" fill="#F1F1F1" height="48" id="USBPort" rx="2.5" ry="2.5" style="stroke:#181818;stroke-width:0.5;" width="91" x="1224.5" y="149"/><ellipse cx="1239.5" cy="165" fill="#ADD1B2" rx="11" ry="11" style="stroke:#181818;stroke-width:1.0;"/><path d="M1241.8438,160.6719 C1240.9063,160.2344 1240.3125,160.0938 1239.4375,160.0938 C1236.8125,160.0938 1234.8125,162.1719 1234.8125,164.8906 L1234.8125,166.0156 C1234.8125,168.5938 1236.9219,170.4844 1239.8125,170.4844 C1241.0313,170.4844 1242.1875,170.1875 1242.9375,169.6406 C1243.5156,169.2344 1243.8438,168.7813 1243.8438,168.3906 C1243.8438,167.9375 1243.4531,167.5469 1242.9844,167.5469 C1242.7656,167.5469 1242.5625,167.625 1242.375,167.8125 C1241.9219,168.2969 1241.9219,168.2969 1241.7344,168.3906 C1241.3125,168.6563 1240.625,168.7813 1239.8594,168.7813 C1237.8125,168.7813 1236.5156,167.6875 1236.5156,165.9844 L1236.5156,164.8906 C1236.5156,163.1094 1237.7656,161.7969 1239.5,161.7969 C1240.0781,161.7969 1240.6875,161.9531 1241.1563,162.2031 C1241.6406,162.4844 1241.8125,162.7031 1241.9063,163.1094 C1241.9688,163.5156 1242,163.6406 1242.1406,163.7656 C1242.2813,163.9063 1242.5156,164.0156 1242.7344,164.0156 C1243,164.0156 1243.2656,163.875 1243.4375,163.6563 C1243.5469,163.5 1243.5781,163.3125 1243.5781,162.8906 L1243.5781,161.4688 C1243.5781,161.0313 1243.5625,160.9063 1243.4688,160.75 C1243.3125,160.4844 1243.0313,160.3438 1242.7344,160.3438 C1242.4375,160.3438 1242.2344,160.4375 1242.0156,160.75 L1241.8438,160.6719 Z " fill="#000000"/><text fill="#000000" font-family="sans-serif" font-size="14" lengthAdjust="spacing" textLength="59" x="1253.5" y="169.8467">USBPort</text><line style="stroke:#181818;stroke-width:0.5;" x1="1225.5" x2="1314.5" y1="181" y2="181"/><line style="stroke:#181818;stroke-width:0.5;" x1="1225.5" x2="1314.5" y1="189" y2="189"/></g><!--class USBDeviceInterface--><g id="elem_USBDeviceInterface"><rect codeLine="8" fill="#F1F1F1" height="48" id="USBDeviceInterface" rx="2.5" ry="2.5" style="stroke:#181818;stroke-width:0.5;" width="174" x="1183" y="41"/><ellipse cx="1198" cy="57" fill="#B4A7E5" rx="11" ry="11" style="stroke:#181818;stroke-width:1.0;"/><path d="M1198.9531,53.7813 L1200.6719,53.7813 C1201.0625,53.7813 1201.25,53.75 1201.375,53.6719 C1201.6406,53.5156 1201.7813,53.2344 1201.7813,52.9375 C1201.7813,52.6719 1201.6719,52.4063 1201.4375,52.2344 C1201.2656,52.125 1201.125,52.0938 1200.6719,52.0938 L1195.5313,52.0938 C1195.0938,52.0938 1194.9688,52.1094 1194.8125,52.2031 C1194.5625,52.3594 1194.4063,52.6563 1194.4063,52.9375 C1194.4063,53.2188 1194.5469,53.4688 1194.7656,53.6406 C1194.9219,53.75 1195.1094,53.7813 1195.5313,53.7813 L1197.25,53.7813 L1197.25,60.2969 L1195.5313,60.2969 C1195.0938,60.2969 1194.9688,60.3125 1194.8125,60.4219 C1194.5625,60.5781 1194.4063,60.8594 1194.4063,61.1563 C1194.4063,61.4063 1194.5469,61.6719 1194.7656,61.8281 C1194.9219,61.9531 1195.125,62 1195.5313,62 L1200.6719,62 C1201.4219,62 1201.7813,61.7188 1201.7813,61.1563 C1201.7813,60.875 1201.6719,60.625 1201.4375,60.4531 C1201.2656,60.3281 1201.125,60.2969 1200.6719,60.2969 L1198.9531,60.2969 L1198.9531,53.7813 Z " fill="#000000"/><text fill="#000000" font-family="sans-serif" font-size="14" font-style="italic" lengthAdjust="spacing" textLength="142" x="1212" y="61.8467">USBDeviceInterface</text><line style="stroke:#181818;stroke-width:0.5;" x1="1184" x2="1356" y1="73" y2="73"/><line style="stroke:#181818;stroke-width:0.5;" x1="1184" x2="1356" y1="81" y2="81"/></g><!--class BuiltinKeyboard--><g id="elem_BuiltinKeyboard"><rect codeLine="11" fill="#F1F1F1" height="48" id="BuiltinKeyboard" rx="2.5" ry="2.5" style="stroke:#181818;stroke-width:0.5;" width="147" x="653.5" y="149"/><ellipse cx="668.5" cy="165" fill="#ADD1B2" rx="11" ry="11" style="stroke:#181818;stroke-width:1.0;"/><path d="M670.8438,160.6719 C669.9063,160.2344 669.3125,160.0938 668.4375,160.0938 C665.8125,160.0938 663.8125,162.1719 663.8125,164.8906 L663.8125,166.0156 C663.8125,168.5938 665.9219,170.4844 668.8125,170.4844 C670.0313,170.4844 671.1875,170.1875 671.9375,169.6406 C672.5156,169.2344 672.8438,168.7813 672.8438,168.3906 C672.8438,167.9375 672.4531,167.5469 671.9844,167.5469 C671.7656,167.5469 671.5625,167.625 671.375,167.8125 C670.9219,168.2969 670.9219,168.2969 670.7344,168.3906 C670.3125,168.6563 669.625,168.7813 668.8594,168.7813 C666.8125,168.7813 665.5156,167.6875 665.5156,165.9844 L665.5156,164.8906 C665.5156,163.1094 666.7656,161.7969 668.5,161.7969 C669.0781,161.7969 669.6875,161.9531 670.1563,162.2031 C670.6406,162.4844 670.8125,162.7031 670.9063,163.1094 C670.9688,163.5156 671,163.6406 671.1406,163.7656 C671.2813,163.9063 671.5156,164.0156 671.7344,164.0156 C672,164.0156 672.2656,163.875 672.4375,163.6563 C672.5469,163.5 672.5781,163.3125 672.5781,162.8906 L672.5781,161.4688 C672.5781,161.0313 672.5625,160.9063 672.4688,160.75 C672.3125,160.4844 672.0313,160.3438 671.7344,160.3438 C671.4375,160.3438 671.2344,160.4375 671.0156,160.75 L670.8438,160.6719 Z " fill="#000000"/><text fill="#000000" font-family="sans-serif" font-size="14" lengthAdjust="spacing" textLength="115" x="682.5" y="169.8467">BuiltinKeyboard</text><line style="stroke:#181818;stroke-width:0.5;" x1="654.5" x2="799.5" y1="181" y2="181"/><line style="stroke:#181818;stroke-width:0.5;" x1="654.5" x2="799.5" y1="189" y2="189"/></g><!--class BuiltinTrackpad--><g id="elem_BuiltinTrackpad"><rect codeLine="12" fill="#F1F1F1" height="48" id="BuiltinTrackpad" rx="2.5" ry="2.5" style="stroke:#181818;stroke-width:0.5;" width="145" x="473.5" y="149"/><ellipse cx="488.5" cy="165" fill="#ADD1B2" rx="11" ry="11" style="stroke:#181818;stroke-width:1.0;"/><path d="M490.8438,160.6719 C489.9063,160.2344 489.3125,160.0938 488.4375,160.0938 C485.8125,160.0938 483.8125,162.1719 483.8125,164.8906 L483.8125,166.0156 C483.8125,168.5938 485.9219,170.4844 488.8125,170.4844 C490.0313,170.4844 491.1875,170.1875 491.9375,169.6406 C492.5156,169.2344 492.8438,168.7813 492.8438,168.3906 C492.8438,167.9375 492.4531,167.5469 491.9844,167.5469 C491.7656,167.5469 491.5625,167.625 491.375,167.8125 C490.9219,168.2969 490.9219,168.2969 490.7344,168.3906 C490.3125,168.6563 489.625,168.7813 488.8594,168.7813 C486.8125,168.7813 485.5156,167.6875 485.5156,165.9844 L485.5156,164.8906 C485.5156,163.1094 486.7656,161.7969 488.5,161.7969 C489.0781,161.7969 489.6875,161.9531 490.1563,162.2031 C490.6406,162.4844 490.8125,162.7031 490.9063,163.1094 C490.9688,163.5156 491,163.6406 491.1406,163.7656 C491.2813,163.9063 491.5156,164.0156 491.7344,164.0156 C492,164.0156 492.2656,163.875 492.4375,163.6563 C492.5469,163.5 492.5781,163.3125 492.5781,162.8906 L492.5781,161.4688 C492.5781,161.0313 492.5625,160.9063 492.4688,160.75 C492.3125,160.4844 492.0313,160.3438 491.7344,160.3438 C491.4375,160.3438 491.2344,160.4375 491.0156,160.75 L490.8438,160.6719 Z " fill="#000000"/><text fill="#000000" font-family="sans-serif" font-size="14" lengthAdjust="spacing" textLength="113" x="502.5" y="169.8467">BuiltinTrackpad</text><line style="stroke:#181818;stroke-width:0.5;" x1="474.5" x2="617.5" y1="181" y2="181"/><line style="stroke:#181818;stroke-width:0.5;" x1="474.5" x2="617.5" y1="189" y2="189"/></g><!--class USBKeyboard--><g id="elem_USBKeyboard"><rect codeLine="15" fill="#F1F1F1" height="48" id="USBKeyboard" rx="2.5" ry="2.5" style="stroke:#181818;stroke-width:0.5;" width="129" x="997.5" y="149"/><ellipse cx="1012.5" cy="165" fill="#ADD1B2" rx="11" ry="11" style="stroke:#181818;stroke-width:1.0;"/><path d="M1014.8438,160.6719 C1013.9063,160.2344 1013.3125,160.0938 1012.4375,160.0938 C1009.8125,160.0938 1007.8125,162.1719 1007.8125,164.8906 L1007.8125,166.0156 C1007.8125,168.5938 1009.9219,170.4844 1012.8125,170.4844 C1014.0313,170.4844 1015.1875,170.1875 1015.9375,169.6406 C1016.5156,169.2344 1016.8438,168.7813 1016.8438,168.3906 C1016.8438,167.9375 1016.4531,167.5469 1015.9844,167.5469 C1015.7656,167.5469 1015.5625,167.625 1015.375,167.8125 C1014.9219,168.2969 1014.9219,168.2969 1014.7344,168.3906 C1014.3125,168.6563 1013.625,168.7813 1012.8594,168.7813 C1010.8125,168.7813 1009.5156,167.6875 1009.5156,165.9844 L1009.5156,164.8906 C1009.5156,163.1094 1010.7656,161.7969 1012.5,161.7969 C1013.0781,161.7969 1013.6875,161.9531 1014.1563,162.2031 C1014.6406,162.4844 1014.8125,162.7031 1014.9063,163.1094 C1014.9688,163.5156 1015,163.6406 1015.1406,163.7656 C1015.2813,163.9063 1015.5156,164.0156 1015.7344,164.0156 C1016,164.0156 1016.2656,163.875 1016.4375,163.6563 C1016.5469,163.5 1016.5781,163.3125 1016.5781,162.8906 L1016.5781,161.4688 C1016.5781,161.0313 1016.5625,160.9063 1016.4688,160.75 C1016.3125,160.4844 1016.0313,160.3438 1015.7344,160.3438 C1015.4375,160.3438 1015.2344,160.4375 1015.0156,160.75 L1014.8438,160.6719 Z " fill="#000000"/><text fill="#000000" font-family="sans-serif" font-size="14" lengthAdjust="spacing" textLength="97" x="1026.5" y="169.8467">USBKeyboard</text><line style="stroke:#181818;stroke-width:0.5;" x1="998.5" x2="1125.5" y1="181" y2="181"/><line style="stroke:#181818;stroke-width:0.5;" x1="998.5" x2="1125.5" y1="189" y2="189"/></g><!--class USBMouse--><g id="elem_USBMouse"><rect codeLine="16" fill="#F1F1F1" height="48" id="USBMouse" rx="2.5" ry="2.5" style="stroke:#181818;stroke-width:0.5;" width="105" x="857.5" y="149"/><ellipse cx="872.5" cy="165" fill="#ADD1B2" rx="11" ry="11" style="stroke:#181818;stroke-width:1.0;"/><path d="M874.8438,160.6719 C873.9063,160.2344 873.3125,160.0938 872.4375,160.0938 C869.8125,160.0938 867.8125,162.1719 867.8125,164.8906 L867.8125,166.0156 C867.8125,168.5938 869.9219,170.4844 872.8125,170.4844 C874.0313,170.4844 875.1875,170.1875 875.9375,169.6406 C876.5156,169.2344 876.8438,168.7813 876.8438,168.3906 C876.8438,167.9375 876.4531,167.5469 875.9844,167.5469 C875.7656,167.5469 875.5625,167.625 875.375,167.8125 C874.9219,168.2969 874.9219,168.2969 874.7344,168.3906 C874.3125,168.6563 873.625,168.7813 872.8594,168.7813 C870.8125,168.7813 869.5156,167.6875 869.5156,165.9844 L869.5156,164.8906 C869.5156,163.1094 870.7656,161.7969 872.5,161.7969 C873.0781,161.7969 873.6875,161.9531 874.1563,162.2031 C874.6406,162.4844 874.8125,162.7031 874.9063,163.1094 C874.9688,163.5156 875,163.6406 875.1406,163.7656 C875.2813,163.9063 875.5156,164.0156 875.7344,164.0156 C876,164.0156 876.2656,163.875 876.4375,163.6563 C876.5469,163.5 876.5781,163.3125 876.5781,162.8906 L876.5781,161.4688 C876.5781,161.0313 876.5625,160.9063 876.4688,160.75 C876.3125,160.4844 876.0313,160.3438 875.7344,160.3438 C875.4375,160.3438 875.2344,160.4375 875.0156,160.75 L874.8438,160.6719 Z " fill="#000000"/><text fill="#000000" font-family="sans-serif" font-size="14" lengthAdjust="spacing" textLength="73" x="886.5" y="169.8467">USBMouse</text><line style="stroke:#181818;stroke-width:0.5;" x1="858.5" x2="961.5" y1="181" y2="181"/><line style="stroke:#181818;stroke-width:0.5;" x1="858.5" x2="961.5" y1="189" y2="189"/></g><!--reverse link KeyboardInterface to PCOperator--><g id="link_KeyboardInterface_PCOperator"><path codeLine="19" d="M307.675,92.819 C290.128,110.041 267.563,132.188 250.762,148.6784 " fill="none" id="KeyboardInterface-backto-PCOperator" style="stroke:#181818;stroke-width:1.0;"/><polygon fill="#181818" points="311.566,89,302.3412,92.45,307.9978,92.5025,307.9452,98.1591,311.566,89" style="stroke:#181818;stroke-width:1.0;"/></g><!--reverse link PointerDeviceInterface to PCOperator--><g id="link_PointerDeviceInterface_PCOperator"><path codeLine="20" d="M147.072,92.819 C164.456,110.041 186.812,132.188 203.458,148.6784 " fill="none" id="PointerDeviceInterface-backto-PCOperator" style="stroke:#181818;stroke-width:1.0;"/><polygon fill="#181818" points="143.217,89,146.7971,98.1751,146.7696,92.5184,152.4264,92.4909,143.217,89" style="stroke:#181818;stroke-width:1.0;"/></g><!--reverse link USBDeviceInterface to USBPort--><g id="link_USBDeviceInterface_USBPort"><path codeLine="21" d="M1270,94.131 C1270,111.154 1270,132.6037 1270,148.6784 " fill="none" id="USBDeviceInterface-backto-USBPort" style="stroke:#181818;stroke-width:1.0;"/><polygon fill="#181818" points="1270,89,1266,98,1270,94,1274,98,1270,89" style="stroke:#181818;stroke-width:1.0;"/></g><!--reverse link KeyboardInterface to BuiltinKeyboard--><g id="link_KeyboardInterface_BuiltinKeyboard"><path codeLine="22" d="M437.286,67.162 C497.059,70.849 572.906,80.814 636,106 C660.832,115.913 685.148,134.1175 702.388,148.9004 " fill="none" id="KeyboardInterface-backto-BuiltinKeyboard" style="stroke:#181818;stroke-width:1.0;stroke-dasharray:7.0,7.0;"/><polygon fill="none" points="436.879,74.151,417.268,66.123,437.605,60.17,436.879,74.151" style="stroke:#181818;stroke-width:1.0;"/></g><!--reverse link KeyboardInterface to USBKeyboard--><g id="link_KeyboardInterface_USBKeyboard"><path codeLine="23" d="M437.246,68.943 C606.415,74.317 930.863,86.952 980,106 C1003.68,115.181 1025.82,133.8502 1041.11,148.9968 " fill="none" id="KeyboardInterface-backto-USBKeyboard" style="stroke:#181818;stroke-width:1.0;stroke-dasharray:7.0,7.0;"/><polygon fill="none" points="436.939,75.937,417.167,68.316,437.376,61.943,436.939,75.937" style="stroke:#181818;stroke-width:1.0;"/></g><!--reverse link PointerDeviceInterface to BuiltinTrackpad--><g id="link_PointerDeviceInterface_BuiltinTrackpad"><path codeLine="24" d="M237.604,88.869 C326.198,98.73 354.4,81.07 433,106 C462.885,115.479 493.387,133.9171 515.156,148.901 " fill="none" id="PointerDeviceInterface-backto-BuiltinTrackpad" style="stroke:#181818;stroke-width:1.0;stroke-dasharray:7.0,7.0;"/><polygon fill="none" points="236.69,95.809,217.743,86.321,238.471,81.922,236.69,95.809" style="stroke:#181818;stroke-width:1.0;"/></g><!--reverse link PointerDeviceInterface to USBMouse--><g id="link_PointerDeviceInterface_USBMouse"><path codeLine="25" d="M237.934,88.319 C356.468,95.045 759.609,86.777 817,106 C843.095,114.74 868.27,133.447 885.831,148.7204 " fill="none" id="PointerDeviceInterface-backto-USBMouse" style="stroke:#181818;stroke-width:1.0;stroke-dasharray:7.0,7.0;"/><polygon fill="none" points="237.073,95.272,217.694,86.701,238.189,81.317,237.073,95.272" style="stroke:#181818;stroke-width:1.0;"/></g><!--reverse link USBDeviceInterface to USBKeyboard--><g id="link_USBDeviceInterface_USBKeyboard"><path codeLine="26" d="M1186.7,96.76 C1179.97,99.727 1173.32,102.821 1167,106 C1141.99,118.571 1115.31,135.3947 1095.09,148.9096 " fill="none" id="USBDeviceInterface-backto-USBKeyboard" style="stroke:#181818;stroke-width:1.0;stroke-dasharray:7.0,7.0;"/><polygon fill="none" points="1184.02,90.296,1205.17,89.002,1189.44,103.203,1184.02,90.296" style="stroke:#181818;stroke-width:1.0;"/></g><!--reverse link USBDeviceInterface to USBMouse--><g id="link_USBDeviceInterface_USBMouse"><path codeLine="27" d="M1162.97,73.929 C1094.11,80.329 1011.76,90.793 980,106 C959.361,115.882 940.765,134.0888 927.936,148.8804 " fill="none" id="USBDeviceInterface-backto-USBMouse" style="stroke:#181818;stroke-width:1.0;stroke-dasharray:7.0,7.0;"/><polygon fill="none" points="1162.37,66.955,1182.91,72.152,1163.61,80.9,1162.37,66.955" style="stroke:#181818;stroke-width:1.0;"/></g><!--SRC=[VP1D3e8m58JtdA8NW1Eu0bqOOoHH3_0iJzD8sgOjHgFUtSf_QM57XkatRqO2lSCDoK6Y0iC49- -845g2rYJF6bKeAp5kK5s18jdXwo905TjESVxcelvUuuDH72pVIBP9cU0SwIJgV4npeOn3ijey9QrOQHXl32DGgtStJlMJikyb52FIvcdf74eFPVCzZDNsejB_IwpcBK5MSUpE5fx3z_bbQy-mIo3haoI1lZD6jytSMIDaFzMokryatC6FNd3Le1y0]--></g><style id="stylus-12" type="text/css" class="stylus">iframe {
    display: none;
}</style></svg>