<svg xmlns="http://www.w3.org/2000/svg" xmlns:xlink="http://www.w3.org/1999/xlink" contentStyleType="text/css" height="204" preserveAspectRatio="none" style="width:143px;height:204px;background:#FFFFFF;" version="1.1" viewBox="0 0 143 204" width="143" zoomAndPan="magnify"><defs/><g><!--cluster Connection--><g id="cluster_Connection"><path d="M12,6 L104,6 A3.75,3.75 0 0 1 106.5,8.5 L113.5,28.2969 L131,28.2969 A2.5,2.5 0 0 1 133.5,30.7969 L133.5,102.5 A2.5,2.5 0 0 1 131,105 L12,105 A2.5,2.5 0 0 1 9.5,102.5 L9.5,8.5 A2.5,2.5 0 0 1 12,6 " fill="none" style="stroke:#000000;stroke-width:1.5;"/><line style="stroke:#000000;stroke-width:1.5;" x1="9.5" x2="113.5" y1="28.2969" y2="28.2969"/><text fill="#000000" font-family="sans-serif" font-size="14" font-weight="bold" lengthAdjust="spacing" textLength="91" x="13.5" y="20.9951">Connection</text></g><!--class USBPort--><g id="elem_USBPort"><rect codeLine="2" fill="#F1F1F1" height="48" id="USBPort" rx="2.5" ry="2.5" style="stroke:#181818;stroke-width:0.5;" width="91" x="26" y="41"/><ellipse cx="41" cy="57" fill="#ADD1B2" rx="11" ry="11" style="stroke:#181818;stroke-width:1.0;"/><path d="M43.3438,52.6719 C42.4063,52.2344 41.8125,52.0938 40.9375,52.0938 C38.3125,52.0938 36.3125,54.1719 36.3125,56.8906 L36.3125,58.0156 C36.3125,60.5938 38.4219,62.4844 41.3125,62.4844 C42.5313,62.4844 43.6875,62.1875 44.4375,61.6406 C45.0156,61.2344 45.3438,60.7813 45.3438,60.3906 C45.3438,59.9375 44.9531,59.5469 44.4844,59.5469 C44.2656,59.5469 44.0625,59.625 43.875,59.8125 C43.4219,60.2969 43.4219,60.2969 43.2344,60.3906 C42.8125,60.6563 42.125,60.7813 41.3594,60.7813 C39.3125,60.7813 38.0156,59.6875 38.0156,57.9844 L38.0156,56.8906 C38.0156,55.1094 39.2656,53.7969 41,53.7969 C41.5781,53.7969 42.1875,53.9531 42.6563,54.2031 C43.1406,54.4844 43.3125,54.7031 43.4063,55.1094 C43.4688,55.5156 43.5,55.6406 43.6406,55.7656 C43.7813,55.9063 44.0156,56.0156 44.2344,56.0156 C44.5,56.0156 44.7656,55.875 44.9375,55.6563 C45.0469,55.5 45.0781,55.3125 45.0781,54.8906 L45.0781,53.4688 C45.0781,53.0313 45.0625,52.9063 44.9688,52.75 C44.8125,52.4844 44.5313,52.3438 44.2344,52.3438 C43.9375,52.3438 43.7344,52.4375 43.5156,52.75 L43.3438,52.6719 Z " fill="#000000"/><text fill="#000000" font-family="sans-serif" font-size="14" lengthAdjust="spacing" textLength="59" x="55" y="61.8467">USBPort</text><line style="stroke:#181818;stroke-width:0.5;" x1="27" x2="116" y1="73" y2="73"/><line style="stroke:#181818;stroke-width:0.5;" x1="27" x2="116" y1="81" y2="81"/></g><!--class USBKeyboard--><g id="elem_USBKeyboard"><rect codeLine="4" fill="#F1F1F1" height="48" id="USBKeyboard" rx="2.5" ry="2.5" style="stroke:#181818;stroke-width:0.5;" width="129" x="7" y="149"/><ellipse cx="22" cy="165" fill="#ADD1B2" rx="11" ry="11" style="stroke:#181818;stroke-width:1.0;"/><path d="M24.3438,160.6719 C23.4063,160.2344 22.8125,160.0938 21.9375,160.0938 C19.3125,160.0938 17.3125,162.1719 17.3125,164.8906 L17.3125,166.0156 C17.3125,168.5938 19.4219,170.4844 22.3125,170.4844 C23.5313,170.4844 24.6875,170.1875 25.4375,169.6406 C26.0156,169.2344 26.3438,168.7813 26.3438,168.3906 C26.3438,167.9375 25.9531,167.5469 25.4844,167.5469 C25.2656,167.5469 25.0625,167.625 24.875,167.8125 C24.4219,168.2969 24.4219,168.2969 24.2344,168.3906 C23.8125,168.6563 23.125,168.7813 22.3594,168.7813 C20.3125,168.7813 19.0156,167.6875 19.0156,165.9844 L19.0156,164.8906 C19.0156,163.1094 20.2656,161.7969 22,161.7969 C22.5781,161.7969 23.1875,161.9531 23.6563,162.2031 C24.1406,162.4844 24.3125,162.7031 24.4063,163.1094 C24.4688,163.5156 24.5,163.6406 24.6406,163.7656 C24.7813,163.9063 25.0156,164.0156 25.2344,164.0156 C25.5,164.0156 25.7656,163.875 25.9375,163.6563 C26.0469,163.5 26.0781,163.3125 26.0781,162.8906 L26.0781,161.4688 C26.0781,161.0313 26.0625,160.9063 25.9688,160.75 C25.8125,160.4844 25.5313,160.3438 25.2344,160.3438 C24.9375,160.3438 24.7344,160.4375 24.5156,160.75 L24.3438,160.6719 Z " fill="#000000"/><text fill="#000000" font-family="sans-serif" font-size="14" lengthAdjust="spacing" textLength="97" x="36" y="169.8467">USBKeyboard</text><line style="stroke:#181818;stroke-width:0.5;" x1="8" x2="135" y1="181" y2="181"/><line style="stroke:#181818;stroke-width:0.5;" x1="8" x2="135" y1="189" y2="189"/></g><!--link USBPort to USBKeyboard--><g id="link_USBPort_USBKeyboard"><path codeLine="6" d="M71.5,89 C71.5,105.003 71.5,126.4461 71.5,143.528 " fill="none" id="USBPort-to-USBKeyboard" style="stroke:#181818;stroke-width:1.0;"/><polygon fill="#181818" points="71.5,148.6784,75.5,139.6784,71.5,143.6784,67.5,139.6784,71.5,148.6784" style="stroke:#181818;stroke-width:1.0;"/></g><!--SRC=[AqXCpavCJrLmpi_BIqqkoSpFKwZcKb18paaiBbO83NOAo2yguQhbWlEzKokJyXEBKhY0Yg3I2hgwTiXI0000]--></g><style id="stylus-12" type="text/css" class="stylus">iframe {
    display: none;
}</style></svg>