<svg xmlns="http://www.w3.org/2000/svg" xmlns:xlink="http://www.w3.org/1999/xlink" contentStyleType="text/css" height="312" preserveAspectRatio="none" style="width:364px;height:312px;background:#FFFFFF;" version="1.1" viewBox="0 0 364 312" width="364" zoomAndPan="magnify"><defs/><g><!--cluster Core--><g id="cluster_Core"><path d="M77.5,6 L114.5,6 A3.75,3.75 0 0 1 117,8.5 L124,28.2969 L290.5,28.2969 A2.5,2.5 0 0 1 293,30.7969 L293,210.5 A2.5,2.5 0 0 1 290.5,213 L77.5,213 A2.5,2.5 0 0 1 75,210.5 L75,8.5 A2.5,2.5 0 0 1 77.5,6 " fill="none" style="stroke:#000000;stroke-width:1.5;"/><line style="stroke:#000000;stroke-width:1.5;" x1="75" x2="124" y1="28.2969" y2="28.2969"/><text fill="#000000" font-family="sans-serif" font-size="14" font-weight="bold" lengthAdjust="spacing" textLength="36" x="79" y="20.9951">Core</text></g><!--class NumberConverter--><g id="elem_NumberConverter"><rect codeLine="2" fill="#F1F1F1" height="48" id="NumberConverter" rx="2.5" ry="2.5" style="stroke:#181818;stroke-width:0.5;" width="162" x="103" y="41"/><ellipse cx="118" cy="57" fill="#ADD1B2" rx="11" ry="11" style="stroke:#181818;stroke-width:1.0;"/><path d="M120.3438,52.6719 C119.4063,52.2344 118.8125,52.0938 117.9375,52.0938 C115.3125,52.0938 113.3125,54.1719 113.3125,56.8906 L113.3125,58.0156 C113.3125,60.5938 115.4219,62.4844 118.3125,62.4844 C119.5313,62.4844 120.6875,62.1875 121.4375,61.6406 C122.0156,61.2344 122.3438,60.7813 122.3438,60.3906 C122.3438,59.9375 121.9531,59.5469 121.4844,59.5469 C121.2656,59.5469 121.0625,59.625 120.875,59.8125 C120.4219,60.2969 120.4219,60.2969 120.2344,60.3906 C119.8125,60.6563 119.125,60.7813 118.3594,60.7813 C116.3125,60.7813 115.0156,59.6875 115.0156,57.9844 L115.0156,56.8906 C115.0156,55.1094 116.2656,53.7969 118,53.7969 C118.5781,53.7969 119.1875,53.9531 119.6563,54.2031 C120.1406,54.4844 120.3125,54.7031 120.4063,55.1094 C120.4688,55.5156 120.5,55.6406 120.6406,55.7656 C120.7813,55.9063 121.0156,56.0156 121.2344,56.0156 C121.5,56.0156 121.7656,55.875 121.9375,55.6563 C122.0469,55.5 122.0781,55.3125 122.0781,54.8906 L122.0781,53.4688 C122.0781,53.0313 122.0625,52.9063 121.9688,52.75 C121.8125,52.4844 121.5313,52.3438 121.2344,52.3438 C120.9375,52.3438 120.7344,52.4375 120.5156,52.75 L120.3438,52.6719 Z " fill="#000000"/><text fill="#000000" font-family="sans-serif" font-size="14" lengthAdjust="spacing" textLength="130" x="132" y="61.8467">NumberConverter</text><line style="stroke:#181818;stroke-width:0.5;" x1="104" x2="264" y1="73" y2="73"/><line style="stroke:#181818;stroke-width:0.5;" x1="104" x2="264" y1="81" y2="81"/></g><!--class ReplaceRuleInterface--><g id="elem_ReplaceRuleInterface"><rect codeLine="3" fill="#F1F1F1" height="48" id="ReplaceRuleInterface" rx="2.5" ry="2.5" style="stroke:#181818;stroke-width:0.5;" width="186" x="91" y="149"/><ellipse cx="106" cy="165" fill="#B4A7E5" rx="11" ry="11" style="stroke:#181818;stroke-width:1.0;"/><path d="M106.9531,161.7813 L108.6719,161.7813 C109.0625,161.7813 109.25,161.75 109.375,161.6719 C109.6406,161.5156 109.7813,161.2344 109.7813,160.9375 C109.7813,160.6719 109.6719,160.4063 109.4375,160.2344 C109.2656,160.125 109.125,160.0938 108.6719,160.0938 L103.5313,160.0938 C103.0938,160.0938 102.9688,160.1094 102.8125,160.2031 C102.5625,160.3594 102.4063,160.6563 102.4063,160.9375 C102.4063,161.2188 102.5469,161.4688 102.7656,161.6406 C102.9219,161.75 103.1094,161.7813 103.5313,161.7813 L105.25,161.7813 L105.25,168.2969 L103.5313,168.2969 C103.0938,168.2969 102.9688,168.3125 102.8125,168.4219 C102.5625,168.5781 102.4063,168.8594 102.4063,169.1563 C102.4063,169.4063 102.5469,169.6719 102.7656,169.8281 C102.9219,169.9531 103.125,170 103.5313,170 L108.6719,170 C109.4219,170 109.7813,169.7188 109.7813,169.1563 C109.7813,168.875 109.6719,168.625 109.4375,168.4531 C109.2656,168.3281 109.125,168.2969 108.6719,168.2969 L106.9531,168.2969 L106.9531,161.7813 Z " fill="#000000"/><text fill="#000000" font-family="sans-serif" font-size="14" font-style="italic" lengthAdjust="spacing" textLength="154" x="120" y="169.8467">ReplaceRuleInterface</text><line style="stroke:#181818;stroke-width:0.5;" x1="92" x2="276" y1="181" y2="181"/><line style="stroke:#181818;stroke-width:0.5;" x1="92" x2="276" y1="189" y2="189"/></g><!--class CyclicNumberRule--><g id="elem_CyclicNumberRule"><rect codeLine="5" fill="#F1F1F1" height="48" id="CyclicNumberRule" rx="2.5" ry="2.5" style="stroke:#181818;stroke-width:0.5;" width="162" x="7" y="257"/><ellipse cx="22" cy="273" fill="#ADD1B2" rx="11" ry="11" style="stroke:#181818;stroke-width:1.0;"/><path d="M24.3438,268.6719 C23.4063,268.2344 22.8125,268.0938 21.9375,268.0938 C19.3125,268.0938 17.3125,270.1719 17.3125,272.8906 L17.3125,274.0156 C17.3125,276.5938 19.4219,278.4844 22.3125,278.4844 C23.5313,278.4844 24.6875,278.1875 25.4375,277.6406 C26.0156,277.2344 26.3438,276.7813 26.3438,276.3906 C26.3438,275.9375 25.9531,275.5469 25.4844,275.5469 C25.2656,275.5469 25.0625,275.625 24.875,275.8125 C24.4219,276.2969 24.4219,276.2969 24.2344,276.3906 C23.8125,276.6563 23.125,276.7813 22.3594,276.7813 C20.3125,276.7813 19.0156,275.6875 19.0156,273.9844 L19.0156,272.8906 C19.0156,271.1094 20.2656,269.7969 22,269.7969 C22.5781,269.7969 23.1875,269.9531 23.6563,270.2031 C24.1406,270.4844 24.3125,270.7031 24.4063,271.1094 C24.4688,271.5156 24.5,271.6406 24.6406,271.7656 C24.7813,271.9063 25.0156,272.0156 25.2344,272.0156 C25.5,272.0156 25.7656,271.875 25.9375,271.6563 C26.0469,271.5 26.0781,271.3125 26.0781,270.8906 L26.0781,269.4688 C26.0781,269.0313 26.0625,268.9063 25.9688,268.75 C25.8125,268.4844 25.5313,268.3438 25.2344,268.3438 C24.9375,268.3438 24.7344,268.4375 24.5156,268.75 L24.3438,268.6719 Z " fill="#000000"/><text fill="#000000" font-family="sans-serif" font-size="14" lengthAdjust="spacing" textLength="130" x="36" y="277.8467">CyclicNumberRule</text><line style="stroke:#181818;stroke-width:0.5;" x1="8" x2="168" y1="289" y2="289"/><line style="stroke:#181818;stroke-width:0.5;" x1="8" x2="168" y1="297" y2="297"/></g><!--class PassThroughRule--><g id="elem_PassThroughRule"><rect codeLine="6" fill="#F1F1F1" height="48" id="PassThroughRule" rx="2.5" ry="2.5" style="stroke:#181818;stroke-width:0.5;" width="153" x="204.5" y="257"/><ellipse cx="219.5" cy="273" fill="#ADD1B2" rx="11" ry="11" style="stroke:#181818;stroke-width:1.0;"/><path d="M221.8438,268.6719 C220.9063,268.2344 220.3125,268.0938 219.4375,268.0938 C216.8125,268.0938 214.8125,270.1719 214.8125,272.8906 L214.8125,274.0156 C214.8125,276.5938 216.9219,278.4844 219.8125,278.4844 C221.0313,278.4844 222.1875,278.1875 222.9375,277.6406 C223.5156,277.2344 223.8438,276.7813 223.8438,276.3906 C223.8438,275.9375 223.4531,275.5469 222.9844,275.5469 C222.7656,275.5469 222.5625,275.625 222.375,275.8125 C221.9219,276.2969 221.9219,276.2969 221.7344,276.3906 C221.3125,276.6563 220.625,276.7813 219.8594,276.7813 C217.8125,276.7813 216.5156,275.6875 216.5156,273.9844 L216.5156,272.8906 C216.5156,271.1094 217.7656,269.7969 219.5,269.7969 C220.0781,269.7969 220.6875,269.9531 221.1563,270.2031 C221.6406,270.4844 221.8125,270.7031 221.9063,271.1094 C221.9688,271.5156 222,271.6406 222.1406,271.7656 C222.2813,271.9063 222.5156,272.0156 222.7344,272.0156 C223,272.0156 223.2656,271.875 223.4375,271.6563 C223.5469,271.5 223.5781,271.3125 223.5781,270.8906 L223.5781,269.4688 C223.5781,269.0313 223.5625,268.9063 223.4688,268.75 C223.3125,268.4844 223.0313,268.3438 222.7344,268.3438 C222.4375,268.3438 222.2344,268.4375 222.0156,268.75 L221.8438,268.6719 Z " fill="#000000"/><text fill="#000000" font-family="sans-serif" font-size="14" lengthAdjust="spacing" textLength="121" x="233.5" y="277.8467">PassThroughRule</text><line style="stroke:#181818;stroke-width:0.5;" x1="205.5" x2="356.5" y1="289" y2="289"/><line style="stroke:#181818;stroke-width:0.5;" x1="205.5" x2="356.5" y1="297" y2="297"/></g><!--reverse link NumberConverter to ReplaceRuleInterface--><g id="link_NumberConverter_ReplaceRuleInterface"><path codeLine="8" d="M184,102.338 C184,117.681 184,135.098 184,148.678 " fill="none" id="NumberConverter-backto-ReplaceRuleInterface" style="stroke:#181818;stroke-width:1.0;"/><polygon fill="none" points="184,89,180,95,184,101,188,95,184,89" style="stroke:#181818;stroke-width:1.0;"/><text fill="#000000" font-family="sans-serif" font-size="13" lengthAdjust="spacing" textLength="7" x="176.1469" y="138.0045">*</text></g><!--reverse link ReplaceRuleInterface to CyclicNumberRule--><g id="link_ReplaceRuleInterface_CyclicNumberRule"><path codeLine="9" d="M149.379,212.227 C135.912,227.0966 120.919,243.6523 109.121,256.6784 " fill="none" id="ReplaceRuleInterface-backto-CyclicNumberRule" style="stroke:#181818;stroke-width:1.0;stroke-dasharray:7.0,7.0;"/><polygon fill="none" points="144.555,207.1256,163.169,197,154.932,216.5235,144.555,207.1256" style="stroke:#181818;stroke-width:1.0;"/></g><!--reverse link ReplaceRuleInterface to PassThroughRule--><g id="link_ReplaceRuleInterface_PassThroughRule"><path codeLine="10" d="M218.981,212.227 C232.588,227.0966 247.738,243.6523 259.659,256.6784 " fill="none" id="ReplaceRuleInterface-backto-PassThroughRule" style="stroke:#181818;stroke-width:1.0;stroke-dasharray:7.0,7.0;"/><polygon fill="none" points="213.385,216.4807,205.048,197,223.714,207.0294,213.385,216.4807" style="stroke:#181818;stroke-width:1.0;"/></g><!--SRC=[AqXCpavCJrLmpYzALQZcKb18paaiBbRmAyrDIYropiyhIoqgIIq2YcVc0UcqnEHKXQ3KWXmW7LIQa-e94-IgvO9eTAvCpibCXcW7gO0A1m29a8oY_DBq3B0eq40qAnJoTNMLj9Imcww0LLZ1faPF3zD6V8hHt040]--></g><style id="stylus-12" type="text/css" class="stylus">iframe {
    display: none;
}</style></svg>