<svg xmlns="http://www.w3.org/2000/svg" xmlns:xlink="http://www.w3.org/1999/xlink" contentStyleType="text/css" height="220" preserveAspectRatio="none" style="width:365px;height:220px;background:#FFFFFF;" version="1.1" viewBox="0 0 365 220" width="365" zoomAndPan="magnify"><defs/><g><!--cluster Connection--><g id="cluster_Connection"><path d="M155,6 L247,6 A3.75,3.75 0 0 1 249.5,8.5 L256.5,28.2969 L356,28.2969 A2.5,2.5 0 0 1 358.5,30.7969 L358.5,210.5 A2.5,2.5 0 0 1 356,213 L155,213 A2.5,2.5 0 0 1 152.5,210.5 L152.5,8.5 A2.5,2.5 0 0 1 155,6 " fill="none" style="stroke:#000000;stroke-width:1.5;"/><line style="stroke:#000000;stroke-width:1.5;" x1="152.5" x2="256.5" y1="28.2969" y2="28.2969"/><text fill="#000000" font-family="sans-serif" font-size="14" font-weight="bold" lengthAdjust="spacing" textLength="91" x="156.5" y="20.9951">Connection</text></g><!--class USBPort--><g id="elem_USBPort"><rect codeLine="2" fill="#F1F1F1" height="48" id="USBPort" rx="2.5" ry="2.5" style="stroke:#181818;stroke-width:0.5;" width="91" x="210" y="41"/><ellipse cx="225" cy="57" fill="#ADD1B2" rx="11" ry="11" style="stroke:#181818;stroke-width:1.0;"/><path d="M227.3438,52.6719 C226.4063,52.2344 225.8125,52.0938 224.9375,52.0938 C222.3125,52.0938 220.3125,54.1719 220.3125,56.8906 L220.3125,58.0156 C220.3125,60.5938 222.4219,62.4844 225.3125,62.4844 C226.5313,62.4844 227.6875,62.1875 228.4375,61.6406 C229.0156,61.2344 229.3438,60.7813 229.3438,60.3906 C229.3438,59.9375 228.9531,59.5469 228.4844,59.5469 C228.2656,59.5469 228.0625,59.625 227.875,59.8125 C227.4219,60.2969 227.4219,60.2969 227.2344,60.3906 C226.8125,60.6563 226.125,60.7813 225.3594,60.7813 C223.3125,60.7813 222.0156,59.6875 222.0156,57.9844 L222.0156,56.8906 C222.0156,55.1094 223.2656,53.7969 225,53.7969 C225.5781,53.7969 226.1875,53.9531 226.6563,54.2031 C227.1406,54.4844 227.3125,54.7031 227.4063,55.1094 C227.4688,55.5156 227.5,55.6406 227.6406,55.7656 C227.7813,55.9063 228.0156,56.0156 228.2344,56.0156 C228.5,56.0156 228.7656,55.875 228.9375,55.6563 C229.0469,55.5 229.0781,55.3125 229.0781,54.8906 L229.0781,53.4688 C229.0781,53.0313 229.0625,52.9063 228.9688,52.75 C228.8125,52.4844 228.5313,52.3438 228.2344,52.3438 C227.9375,52.3438 227.7344,52.4375 227.5156,52.75 L227.3438,52.6719 Z " fill="#000000"/><text fill="#000000" font-family="sans-serif" font-size="14" lengthAdjust="spacing" textLength="59" x="239" y="61.8467">USBPort</text><line style="stroke:#181818;stroke-width:0.5;" x1="211" x2="300" y1="73" y2="73"/><line style="stroke:#181818;stroke-width:0.5;" x1="211" x2="300" y1="81" y2="81"/></g><!--class USBDeviceInterface--><g id="elem_USBDeviceInterface"><rect codeLine="3" fill="#F1F1F1" height="48" id="USBDeviceInterface" rx="2.5" ry="2.5" style="stroke:#181818;stroke-width:0.5;" width="174" x="168.5" y="149"/><ellipse cx="183.5" cy="165" fill="#B4A7E5" rx="11" ry="11" style="stroke:#181818;stroke-width:1.0;"/><path d="M184.4531,161.7813 L186.1719,161.7813 C186.5625,161.7813 186.75,161.75 186.875,161.6719 C187.1406,161.5156 187.2813,161.2344 187.2813,160.9375 C187.2813,160.6719 187.1719,160.4063 186.9375,160.2344 C186.7656,160.125 186.625,160.0938 186.1719,160.0938 L181.0313,160.0938 C180.5938,160.0938 180.4688,160.1094 180.3125,160.2031 C180.0625,160.3594 179.9063,160.6563 179.9063,160.9375 C179.9063,161.2188 180.0469,161.4688 180.2656,161.6406 C180.4219,161.75 180.6094,161.7813 181.0313,161.7813 L182.75,161.7813 L182.75,168.2969 L181.0313,168.2969 C180.5938,168.2969 180.4688,168.3125 180.3125,168.4219 C180.0625,168.5781 179.9063,168.8594 179.9063,169.1563 C179.9063,169.4063 180.0469,169.6719 180.2656,169.8281 C180.4219,169.9531 180.625,170 181.0313,170 L186.1719,170 C186.9219,170 187.2813,169.7188 187.2813,169.1563 C187.2813,168.875 187.1719,168.625 186.9375,168.4531 C186.7656,168.3281 186.625,168.2969 186.1719,168.2969 L184.4531,168.2969 L184.4531,161.7813 Z " fill="#000000"/><text fill="#000000" font-family="sans-serif" font-size="14" font-style="italic" lengthAdjust="spacing" textLength="142" x="197.5" y="169.8467">USBDeviceInterface</text><line style="stroke:#181818;stroke-width:0.5;" x1="169.5" x2="341.5" y1="181" y2="181"/><line style="stroke:#181818;stroke-width:0.5;" x1="169.5" x2="341.5" y1="189" y2="189"/></g><!--class USBKeyboard--><g id="elem_USBKeyboard"><rect codeLine="5" fill="#F1F1F1" height="48" id="USBKeyboard" rx="2.5" ry="2.5" style="stroke:#181818;stroke-width:0.5;" width="129" x="7" y="41"/><ellipse cx="22" cy="57" fill="#ADD1B2" rx="11" ry="11" style="stroke:#181818;stroke-width:1.0;"/><path d="M24.3438,52.6719 C23.4063,52.2344 22.8125,52.0938 21.9375,52.0938 C19.3125,52.0938 17.3125,54.1719 17.3125,56.8906 L17.3125,58.0156 C17.3125,60.5938 19.4219,62.4844 22.3125,62.4844 C23.5313,62.4844 24.6875,62.1875 25.4375,61.6406 C26.0156,61.2344 26.3438,60.7813 26.3438,60.3906 C26.3438,59.9375 25.9531,59.5469 25.4844,59.5469 C25.2656,59.5469 25.0625,59.625 24.875,59.8125 C24.4219,60.2969 24.4219,60.2969 24.2344,60.3906 C23.8125,60.6563 23.125,60.7813 22.3594,60.7813 C20.3125,60.7813 19.0156,59.6875 19.0156,57.9844 L19.0156,56.8906 C19.0156,55.1094 20.2656,53.7969 22,53.7969 C22.5781,53.7969 23.1875,53.9531 23.6563,54.2031 C24.1406,54.4844 24.3125,54.7031 24.4063,55.1094 C24.4688,55.5156 24.5,55.6406 24.6406,55.7656 C24.7813,55.9063 25.0156,56.0156 25.2344,56.0156 C25.5,56.0156 25.7656,55.875 25.9375,55.6563 C26.0469,55.5 26.0781,55.3125 26.0781,54.8906 L26.0781,53.4688 C26.0781,53.0313 26.0625,52.9063 25.9688,52.75 C25.8125,52.4844 25.5313,52.3438 25.2344,52.3438 C24.9375,52.3438 24.7344,52.4375 24.5156,52.75 L24.3438,52.6719 Z " fill="#000000"/><text fill="#000000" font-family="sans-serif" font-size="14" lengthAdjust="spacing" textLength="97" x="36" y="61.8467">USBKeyboard</text><line style="stroke:#181818;stroke-width:0.5;" x1="8" x2="135" y1="73" y2="73"/><line style="stroke:#181818;stroke-width:0.5;" x1="8" x2="135" y1="81" y2="81"/></g><!--link USBPort to USBDeviceInterface--><g id="link_USBPort_USBDeviceInterface"><path codeLine="7" d="M255.5,89 C255.5,105.003 255.5,126.446 255.5,143.528 " fill="none" id="USBPort-to-USBDeviceInterface" style="stroke:#181818;stroke-width:1.0;"/><polygon fill="#181818" points="255.5,148.6784,259.5,139.6784,255.5,143.6784,251.5,139.6784,255.5,148.6784" style="stroke:#181818;stroke-width:1.0;"/></g><!--link USBKeyboard to USBDeviceInterface--><g id="link_USBKeyboard_USBDeviceInterface"><path codeLine="8" d="M111.425,89 C136.656,103.535 169.678,122.559 197.741,138.726 " fill="none" id="USBKeyboard-to-USBDeviceInterface" style="stroke:#181818;stroke-width:1.0;stroke-dasharray:7.0,7.0;"/><polygon fill="none" points="201.5,132.8126,215.335,148.8617,194.511,144.9436,201.5,132.8126" style="stroke:#181818;stroke-width:1.0;"/></g><!--SRC=[AqXCpavCJrLmpi_BIqqkoSpFKwZcKb18paaiBbO83NOAo2yg0V8pyqfIYz8IarD1OYwfPPd9gPum8QvQBhXoxzJAfFp4eXGke1weRWLTNJjikXIGrIlewTLWKmK0]--></g><style id="stylus-12" type="text/css" class="stylus">iframe {
    display: none;
}</style></svg>